{
    "asset" : {
        "generator" : "Khronos glTF Blender I/O v1.5.17",
        "version" : "2.0"
    },
    "scene" : 0,
    "scenes" : [
        {
            "name" : "Scene",
            "nodes" : [
                0,
                1,
                6
            ]
        }
    ],
    "nodes" : [
        {
            "name" : "Light",
            "rotation" : [
                0.16907569766044617,
                0.7558800578117371,
                -0.272171288728714,
                0.5709478259086609
            ],
            "translation" : [
                3.8476524353027344,
                5.7379584312438965,
                0.9297394156455994
            ]
        },
        {
            "name" : "Camera",
            "rotation" : [
                0.483536034822464,
                0.33687159419059753,
                -0.20870360732078552,
                0.7804827094078064
            ],
            "translation" : [
                7.358891487121582,
                4.958309173583984,
                6.925790786743164
            ]
        },
        {
            "name" : "Group-513796-453"
        },
        {
            "children" : [
                2
            ],
            "name" : "body",
            "rotation" : [
                -0.7071068286895752,
                0,
                0,
                0.7071067094802856
            ]
        },
        {
            "mesh" : 0,
            "name" : "Obj3d66-513796-3-321",
            "rotation" : [
                -0.6786544919013977,
                -0.19856508076190948,
                0.19856508076190948,
                0.6786544919013977
            ],
            "scale" : [
                100.0000228881836,
                100,
                100
            ]
        },
        {
            "children" : [
                3,
                4
            ],
            "name" : "Body"
        },
        {
            "children" : [
                5
            ],
            "name" : "18000\u5706\u684c",
            "rotation" : [
                0.7071068286895752,
                0,
                0,
                0.7071067094802856
            ],
            "scale" : [
                0.009999999776482582,
                0.009999999776482582,
                0.009999999776482582
            ]
        }
    ],
    "materials" : [
        {
            "doubleSided" : true,
            "name" : "Material #28\u5706\u684c.bmp.bmp_jg_md",
            "pbrMetallicRoughness" : {
                "baseColorTexture" : {
                    "index" : 0
                },
                "roughnessFactor" : 0.5527864098548889
            }
        },
        {
            "doubleSided" : true,
            "name" : "Material #51\u5706\u684c.bmp.bmp_jg_md",
            "pbrMetallicRoughness" : {
                "baseColorTexture" : {
                    "index" : 1
                },
                "roughnessFactor" : 0.5527864098548889
            }
        },
        {
            "doubleSided" : true,
            "name" : "Material #27\u5706\u684c.bmp.bmp_jg_md",
            "pbrMetallicRoughness" : {
                "baseColorTexture" : {
                    "index" : 2
                },
                "roughnessFactor" : 0.5527864098548889
            }
        }
    ],
    "meshes" : [
        {
            "name" : "Obj3d66-513796-3-321",
            "primitives" : [
                {
                    "attributes" : {
                        "POSITION" : 0,
                        "NORMAL" : 1,
                        "TEXCOORD_0" : 2,
                        "COLOR_0" : 3
                    },
                    "indices" : 4,
                    "material" : 0
                },
                {
                    "attributes" : {
                        "POSITION" : 5,
                        "NORMAL" : 6,
                        "TEXCOORD_0" : 7,
                        "COLOR_0" : 8
                    },
                    "indices" : 9,
                    "material" : 1
                },
                {
                    "attributes" : {
                        "POSITION" : 10,
                        "NORMAL" : 11,
                        "TEXCOORD_0" : 12,
                        "COLOR_0" : 13
                    },
                    "indices" : 14,
                    "material" : 2
                }
            ]
        }
    ],
    "textures" : [
        {
            "sampler" : 0,
            "source" : 0
        },
        {
            "sampler" : 0,
            "source" : 1
        },
        {
            "sampler" : 0,
            "source" : 2
        }
    ],
    "images" : [
        {
            "bufferView" : 5,
            "mimeType" : "image/png",
            "name" : "\u5706\u684c.jpg"
        },
        {
            "bufferView" : 11,
            "mimeType" : "image/png",
            "name" : "\u91d1\u5c5e_2.jpg"
        },
        {
            "bufferView" : 17,
            "mimeType" : "image/png",
            "name" : "\u7eaf\u8272\u9ed1\u767d\u7070.jpg"
        }
    ],
    "accessors" : [
        {
            "bufferView" : 0,
            "componentType" : 5126,
            "count" : 1219,
            "max" : [
                0.44970691204071045,
                0.7199999690055847,
                0.44970691204071045
            ],
            "min" : [
                -0.44970691204071045,
                0.6955000162124634,
                -0.44970691204071045
            ],
            "type" : "VEC3"
        },
        {
            "bufferView" : 1,
            "componentType" : 5126,
            "count" : 1219,
            "type" : "VEC3"
        },
        {
            "bufferView" : 2,
            "componentType" : 5126,
            "count" : 1219,
            "type" : "VEC2"
        },
        {
            "bufferView" : 3,
            "componentType" : 5123,
            "count" : 1219,
            "normalized" : true,
            "type" : "VEC4"
        },
        {
            "bufferView" : 4,
            "componentType" : 5123,
            "count" : 2106,
            "type" : "SCALAR"
        },
        {
            "bufferView" : 6,
            "componentType" : 5126,
            "count" : 1206,
            "max" : [
                0.3919513523578644,
                0.7100003361701965,
                0.39195141196250916
            ],
            "min" : [
                -0.39195141196250916,
                0.004999995231628418,
                -0.391951322555542
            ],
            "type" : "VEC3"
        },
        {
            "bufferView" : 7,
            "componentType" : 5126,
            "count" : 1206,
            "type" : "VEC3"
        },
        {
            "bufferView" : 8,
            "componentType" : 5126,
            "count" : 1206,
            "type" : "VEC2"
        },
        {
            "bufferView" : 9,
            "componentType" : 5123,
            "count" : 1206,
            "normalized" : true,
            "type" : "VEC4"
        },
        {
            "bufferView" : 10,
            "componentType" : 5123,
            "count" : 2550,
            "type" : "SCALAR"
        },
        {
            "bufferView" : 12,
            "componentType" : 5126,
            "count" : 1940,
            "max" : [
                0.3964028060436249,
                0.005000054836273193,
                0.3964027166366577
            ],
            "min" : [
                -0.39640283584594727,
                0,
                -0.39640283584594727
            ],
            "type" : "VEC3"
        },
        {
            "bufferView" : 13,
            "componentType" : 5126,
            "count" : 1940,
            "type" : "VEC3"
        },
        {
            "bufferView" : 14,
            "componentType" : 5126,
            "count" : 1940,
            "type" : "VEC2"
        },
        {
            "bufferView" : 15,
            "componentType" : 5123,
            "count" : 1940,
            "normalized" : true,
            "type" : "VEC4"
        },
        {
            "bufferView" : 16,
            "componentType" : 5123,
            "count" : 2592,
            "type" : "SCALAR"
        }
    ],
    "bufferViews" : [
        {
            "buffer" : 0,
            "byteLength" : 14628,
            "byteOffset" : 0
        },
        {
            "buffer" : 0,
            "byteLength" : 14628,
            "byteOffset" : 14628
        },
        {
            "buffer" : 0,
            "byteLength" : 9752,
            "byteOffset" : 29256
        },
        {
            "buffer" : 0,
            "byteLength" : 9752,
            "byteOffset" : 39008
        },
        {
            "buffer" : 0,
            "byteLength" : 4212,
            "byteOffset" : 48760
        },
        {
            "buffer" : 0,
            "byteLength" : 1400210,
            "byteOffset" : 52972
        },
        {
            "buffer" : 0,
            "byteLength" : 14472,
            "byteOffset" : 1453184
        },
        {
            "buffer" : 0,
            "byteLength" : 14472,
            "byteOffset" : 1467656
        },
        {
            "buffer" : 0,
            "byteLength" : 9648,
            "byteOffset" : 1482128
        },
        {
            "buffer" : 0,
            "byteLength" : 9648,
            "byteOffset" : 1491776
        },
        {
            "buffer" : 0,
            "byteLength" : 5100,
            "byteOffset" : 1501424
        },
        {
            "buffer" : 0,
            "byteLength" : 157624,
            "byteOffset" : 1506524
        },
        {
            "buffer" : 0,
            "byteLength" : 23280,
            "byteOffset" : 1664148
        },
        {
            "buffer" : 0,
            "byteLength" : 23280,
            "byteOffset" : 1687428
        },
        {
            "buffer" : 0,
            "byteLength" : 15520,
            "byteOffset" : 1710708
        },
        {
            "buffer" : 0,
            "byteLength" : 15520,
            "byteOffset" : 1726228
        },
        {
            "buffer" : 0,
            "byteLength" : 5184,
            "byteOffset" : 1741748
        },
        {
            "buffer" : 0,
            "byteLength" : 427,
            "byteOffset" : 1746932
        }
    ],
    "samplers" : [
        {
            "magFilter" : 9729,
            "minFilter" : 9987
        }
    ],
    "buffers" : [
        {
            "byteLength" : 1747360,
            "uri" : "data:application/octet-stream;base64,"
        }
    ]
}
