{
    "asset" : {
        "generator" : "Khronos glTF Blender I/O v1.5.17",
        "version" : "2.0"
    },
    "scene" : 0,
    "scenes" : [
        {
            "name" : "Scene",
            "nodes" : [
                0,
                1,
                2
            ]
        }
    ],
    "nodes" : [
        {
            "name" : "Light",
            "rotation" : [
                0.16907575726509094,
                0.7558803558349609,
                -0.27217137813568115,
                0.570947527885437
            ],
            "translation" : [
                4.076245307922363,
                5.903861999511719,
                -1.0054539442062378
            ]
        },
        {
            "name" : "Camera",
            "rotation" : [
                0.483536034822464,
                0.33687159419059753,
                -0.20870360732078552,
                0.7804827094078064
            ],
            "translation" : [
                7.358891487121582,
                4.958309173583984,
                6.925790786743164
            ]
        },
        {
            "mesh" : 0,
            "name" : "\u7cae\u4ed3\u4ed3\u4f532",
            "rotation" : [
                0.7071068286895752,
                0,
                0,
                0.7071067094802856
            ],
            "scale" : [
                20,
                20,
                20
            ]
        }
    ],
    "materials" : [
        {
            "doubleSided" : true,
            "name" : "huise??_bmp_bmp_jg_md",
            "pbrMetallicRoughness" : {
                "baseColorTexture" : {
                    "index" : 0
                },
                "metallicFactor" : 0,
                "roughnessFactor" : 0.780862033367157
            }
        },
        {
            "doubleSided" : true,
            "name" : "baiqiang??_bmp_bmp_jg_md",
            "pbrMetallicRoughness" : {
                "metallicFactor" : 0,
                "roughnessFactor" : 0.780862033367157
            }
        },
        {
            "doubleSided" : true,
            "name" : "07___Default??_bmp_bmp_jg_md",
            "pbrMetallicRoughness" : {
                "metallicFactor" : 0,
                "roughnessFactor" : 0.780862033367157
            }
        },
        {
            "doubleSided" : true,
            "name" : "??????_bmp_bmp_jg_md",
            "pbrMetallicRoughness" : {
                "metallicFactor" : 0,
                "roughnessFactor" : 0.780862033367157
            }
        },
        {
            "doubleSided" : true,
            "name" : "8????_bmp_bmp_jg_md",
            "pbrMetallicRoughness" : {
                "baseColorTexture" : {
                    "index" : 1
                },
                "metallicFactor" : 0,
                "roughnessFactor" : 0.780862033367157
            }
        }
    ],
    "meshes" : [
        {
            "name" : "\u7cae\u4ed3\u4ed3\u4f532",
            "primitives" : [
                {
                    "attributes" : {
                        "POSITION" : 0,
                        "NORMAL" : 1,
                        "TEXCOORD_0" : 2
                    },
                    "indices" : 3,
                    "material" : 0
                },
                {
                    "attributes" : {
                        "POSITION" : 4,
                        "NORMAL" : 5,
                        "TEXCOORD_0" : 6
                    },
                    "indices" : 7,
                    "material" : 1
                },
                {
                    "attributes" : {
                        "POSITION" : 8,
                        "NORMAL" : 9,
                        "TEXCOORD_0" : 10
                    },
                    "indices" : 11,
                    "material" : 2
                },
                {
                    "attributes" : {
                        "POSITION" : 12,
                        "NORMAL" : 13,
                        "TEXCOORD_0" : 14
                    },
                    "indices" : 15,
                    "material" : 3
                },
                {
                    "attributes" : {
                        "POSITION" : 16,
                        "NORMAL" : 17,
                        "TEXCOORD_0" : 18
                    },
                    "indices" : 19,
                    "material" : 4
                }
            ]
        }
    ],
    "textures" : [
        {
            "sampler" : 0,
            "source" : 0
        },
        {
            "sampler" : 0,
            "source" : 0
        }
    ],
    "images" : [
        {
            "bufferView" : 4,
            "mimeType" : "image/png",
            "name" : "8_png"
        }
    ],
    "accessors" : [
        {
            "bufferView" : 0,
            "componentType" : 5126,
            "count" : 1395,
            "max" : [
                7.367800235748291,
                4.589000225067139,
                0
            ],
            "min" : [
                -7.367800235748291,
                -4.589000225067139,
                -4.728899955749512
            ],
            "type" : "VEC3"
        },
        {
            "bufferView" : 1,
            "componentType" : 5126,
            "count" : 1395,
            "type" : "VEC3"
        },
        {
            "bufferView" : 2,
            "componentType" : 5126,
            "count" : 1395,
            "type" : "VEC2"
        },
        {
            "bufferView" : 3,
            "componentType" : 5123,
            "count" : 2577,
            "type" : "SCALAR"
        },
        {
            "bufferView" : 5,
            "componentType" : 5126,
            "count" : 1059,
            "max" : [
                7.367800235748291,
                4.450200080871582,
                0
            ],
            "min" : [
                -7.2754998207092285,
                -4.450200080871582,
                -4.69350004196167
            ],
            "type" : "VEC3"
        },
        {
            "bufferView" : 6,
            "componentType" : 5126,
            "count" : 1059,
            "type" : "VEC3"
        },
        {
            "bufferView" : 7,
            "componentType" : 5126,
            "count" : 1059,
            "type" : "VEC2"
        },
        {
            "bufferView" : 8,
            "componentType" : 5123,
            "count" : 2412,
            "type" : "SCALAR"
        },
        {
            "bufferView" : 9,
            "componentType" : 5126,
            "count" : 24,
            "max" : [
                -6.921000003814697,
                4.452400207519531,
                -0.5444999933242798
            ],
            "min" : [
                -7.074699878692627,
                -4.452400207519531,
                -2.699700117111206
            ],
            "type" : "VEC3"
        },
        {
            "bufferView" : 10,
            "componentType" : 5126,
            "count" : 24,
            "type" : "VEC3"
        },
        {
            "bufferView" : 11,
            "componentType" : 5126,
            "count" : 24,
            "type" : "VEC2"
        },
        {
            "bufferView" : 12,
            "componentType" : 5123,
            "count" : 36,
            "type" : "SCALAR"
        },
        {
            "bufferView" : 13,
            "componentType" : 5126,
            "count" : 478,
            "max" : [
                7.367800235748291,
                4.2484002113342285,
                -3.1026999950408936
            ],
            "min" : [
                -7.074699878692627,
                -4.2484002113342285,
                -4.728899955749512
            ],
            "type" : "VEC3"
        },
        {
            "bufferView" : 14,
            "componentType" : 5126,
            "count" : 478,
            "type" : "VEC3"
        },
        {
            "bufferView" : 15,
            "componentType" : 5126,
            "count" : 478,
            "type" : "VEC2"
        },
        {
            "bufferView" : 16,
            "componentType" : 5123,
            "count" : 2496,
            "type" : "SCALAR"
        },
        {
            "bufferView" : 17,
            "componentType" : 5126,
            "count" : 186,
            "max" : [
                7.367800235748291,
                4.2484002113342285,
                -3.1026999950408936
            ],
            "min" : [
                -7.074699878692627,
                -4.2484002113342285,
                -4.728899955749512
            ],
            "type" : "VEC3"
        },
        {
            "bufferView" : 18,
            "componentType" : 5126,
            "count" : 186,
            "type" : "VEC3"
        },
        {
            "bufferView" : 19,
            "componentType" : 5126,
            "count" : 186,
            "type" : "VEC2"
        },
        {
            "bufferView" : 20,
            "componentType" : 5123,
            "count" : 252,
            "type" : "SCALAR"
        }
    ],
    "bufferViews" : [
        {
            "buffer" : 0,
            "byteLength" : 16740,
            "byteOffset" : 0
        },
        {
            "buffer" : 0,
            "byteLength" : 16740,
            "byteOffset" : 16740
        },
        {
            "buffer" : 0,
            "byteLength" : 11160,
            "byteOffset" : 33480
        },
        {
            "buffer" : 0,
            "byteLength" : 5154,
            "byteOffset" : 44640
        },
        {
            "buffer" : 0,
            "byteLength" : 248,
            "byteOffset" : 49796
        },
        {
            "buffer" : 0,
            "byteLength" : 12708,
            "byteOffset" : 50044
        },
        {
            "buffer" : 0,
            "byteLength" : 12708,
            "byteOffset" : 62752
        },
        {
            "buffer" : 0,
            "byteLength" : 8472,
            "byteOffset" : 75460
        },
        {
            "buffer" : 0,
            "byteLength" : 4824,
            "byteOffset" : 83932
        },
        {
            "buffer" : 0,
            "byteLength" : 288,
            "byteOffset" : 88756
        },
        {
            "buffer" : 0,
            "byteLength" : 288,
            "byteOffset" : 89044
        },
        {
            "buffer" : 0,
            "byteLength" : 192,
            "byteOffset" : 89332
        },
        {
            "buffer" : 0,
            "byteLength" : 72,
            "byteOffset" : 89524
        },
        {
            "buffer" : 0,
            "byteLength" : 5736,
            "byteOffset" : 89596
        },
        {
            "buffer" : 0,
            "byteLength" : 5736,
            "byteOffset" : 95332
        },
        {
            "buffer" : 0,
            "byteLength" : 3824,
            "byteOffset" : 101068
        },
        {
            "buffer" : 0,
            "byteLength" : 4992,
            "byteOffset" : 104892
        },
        {
            "buffer" : 0,
            "byteLength" : 2232,
            "byteOffset" : 109884
        },
        {
            "buffer" : 0,
            "byteLength" : 2232,
            "byteOffset" : 112116
        },
        {
            "buffer" : 0,
            "byteLength" : 1488,
            "byteOffset" : 114348
        },
        {
            "buffer" : 0,
            "byteLength" : 504,
            "byteOffset" : 115836
        }
    ],
    "samplers" : [
        {
            "magFilter" : 9729,
            "minFilter" : 9987
        }
    ],
    "buffers" : [
        {
            "byteLength" : 116340,
            "uri" : "data:application/octet-stream;base64,"
        }
    ]
}
