{
    "asset" : {
        "generator" : "Khronos glTF Blender I/O v1.5.17",
        "version" : "2.0"
    },
    "scene" : 0,
    "scenes" : [
        {
            "name" : "Scene",
            "nodes" : [
                0,
                1,
                4
            ]
        }
    ],
    "nodes" : [
        {
            "name" : "Light",
            "rotation" : [
                0.16907575726509094,
                0.7558803558349609,
                -0.27217137813568115,
                0.570947527885437
            ],
            "translation" : [
                4.076245307922363,
                5.903861999511719,
                -1.0054539442062378
            ]
        },
        {
            "name" : "Camera",
            "rotation" : [
                0.483536034822464,
                0.33687159419059753,
                -0.20870360732078552,
                0.7804827094078064
            ],
            "translation" : [
                7.358891487121582,
                4.958309173583984,
                6.925790786743164
            ]
        },
        {
            "mesh" : 0,
            "name" : "Box001",
            "scale" : [
                100,
                100,
                100
            ]
        },
        {
            "children" : [
                2
            ],
            "name" : "Body",
            "rotation" : [
                -0.7071068286895752,
                0,
                0,
                0.7071067094802856
            ],
            "translation" : [
                0,
                -8.392333984375e-05,
                0
            ]
        },
        {
            "children" : [
                3
            ],
            "name" : "18000\u4f1a\u8bae\u684c_01",
            "rotation" : [
                0.7071068286895752,
                0,
                0,
                0.7071067094802856
            ],
            "scale" : [
                0.009999999776482582,
                0.009999999776482582,
                0.009999999776482582
            ]
        }
    ],
    "materials" : [
        {
            "doubleSided" : true,
            "name" : "Material #572\u4f1a\u8bae\u684c_01.bmp.bmp_jg_md",
            "pbrMetallicRoughness" : {
                "baseColorTexture" : {
                    "index" : 0
                },
                "roughnessFactor" : 0.5527864098548889
            }
        },
        {
            "doubleSided" : true,
            "name" : "Material #559\u4f1a\u8bae\u684c_01.bmp.bmp_jg_md",
            "pbrMetallicRoughness" : {
                "baseColorTexture" : {
                    "index" : 1
                },
                "roughnessFactor" : 0.5527864098548889
            }
        },
        {
            "doubleSided" : true,
            "name" : "Material #560\u4f1a\u8bae\u684c_01.bmp.bmp_jg_md",
            "pbrMetallicRoughness" : {
                "baseColorTexture" : {
                    "index" : 2
                },
                "roughnessFactor" : 0.5527864098548889
            }
        }
    ],
    "meshes" : [
        {
            "name" : "Box001",
            "primitives" : [
                {
                    "attributes" : {
                        "POSITION" : 0,
                        "NORMAL" : 1,
                        "TEXCOORD_0" : 2,
                        "COLOR_0" : 3
                    },
                    "indices" : 4,
                    "material" : 0
                },
                {
                    "attributes" : {
                        "POSITION" : 5,
                        "NORMAL" : 6,
                        "TEXCOORD_0" : 7,
                        "COLOR_0" : 8
                    },
                    "indices" : 9,
                    "material" : 1
                },
                {
                    "attributes" : {
                        "POSITION" : 10,
                        "NORMAL" : 11,
                        "TEXCOORD_0" : 12,
                        "COLOR_0" : 13
                    },
                    "indices" : 14,
                    "material" : 2
                }
            ]
        }
    ],
    "textures" : [
        {
            "sampler" : 0,
            "source" : 0
        },
        {
            "sampler" : 0,
            "source" : 1
        },
        {
            "sampler" : 0,
            "source" : 2
        }
    ],
    "images" : [
        {
            "bufferView" : 5,
            "mimeType" : "image/png",
            "name" : "\u7070\u82722.jpg"
        },
        {
            "bufferView" : 11,
            "mimeType" : "image/png",
            "name" : "20130410100722609737.jpg"
        },
        {
            "bufferView" : 17,
            "mimeType" : "image/png",
            "name" : "20130410100722609349.jpg"
        }
    ],
    "accessors" : [
        {
            "bufferView" : 0,
            "componentType" : 5126,
            "count" : 6370,
            "max" : [
                1.6551697254180908,
                0.652502179145813,
                0.4248219430446625
            ],
            "min" : [
                -1.6801223754882812,
                5.960464477539063e-08,
                -0.4586658477783203
            ],
            "type" : "VEC3"
        },
        {
            "bufferView" : 1,
            "componentType" : 5126,
            "count" : 6370,
            "type" : "VEC3"
        },
        {
            "bufferView" : 2,
            "componentType" : 5126,
            "count" : 6370,
            "type" : "VEC2"
        },
        {
            "bufferView" : 3,
            "componentType" : 5123,
            "count" : 6370,
            "normalized" : true,
            "type" : "VEC4"
        },
        {
            "bufferView" : 4,
            "componentType" : 5123,
            "count" : 13428,
            "type" : "SCALAR"
        },
        {
            "bufferView" : 6,
            "componentType" : 5126,
            "count" : 410,
            "max" : [
                1.9000000953674316,
                0.7325022220611572,
                0.800000011920929
            ],
            "min" : [
                -1.899999976158142,
                0.652502179145813,
                -0.8000001907348633
            ],
            "type" : "VEC3"
        },
        {
            "bufferView" : 7,
            "componentType" : 5126,
            "count" : 410,
            "type" : "VEC3"
        },
        {
            "bufferView" : 8,
            "componentType" : 5126,
            "count" : 410,
            "type" : "VEC2"
        },
        {
            "bufferView" : 9,
            "componentType" : 5123,
            "count" : 410,
            "normalized" : true,
            "type" : "VEC4"
        },
        {
            "bufferView" : 10,
            "componentType" : 5123,
            "count" : 438,
            "type" : "SCALAR"
        },
        {
            "bufferView" : 12,
            "componentType" : 5126,
            "count" : 4,
            "max" : [
                1.2960002422332764,
                0.7325022220611572,
                0.07099995017051697
            ],
            "min" : [
                -1.2959998846054077,
                0.7325022220611572,
                -0.07100006937980652
            ],
            "type" : "VEC3"
        },
        {
            "bufferView" : 13,
            "componentType" : 5126,
            "count" : 4,
            "type" : "VEC3"
        },
        {
            "bufferView" : 14,
            "componentType" : 5126,
            "count" : 4,
            "type" : "VEC2"
        },
        {
            "bufferView" : 15,
            "componentType" : 5123,
            "count" : 4,
            "normalized" : true,
            "type" : "VEC4"
        },
        {
            "bufferView" : 16,
            "componentType" : 5123,
            "count" : 6,
            "type" : "SCALAR"
        }
    ],
    "bufferViews" : [
        {
            "buffer" : 0,
            "byteLength" : 76440,
            "byteOffset" : 0
        },
        {
            "buffer" : 0,
            "byteLength" : 76440,
            "byteOffset" : 76440
        },
        {
            "buffer" : 0,
            "byteLength" : 50960,
            "byteOffset" : 152880
        },
        {
            "buffer" : 0,
            "byteLength" : 50960,
            "byteOffset" : 203840
        },
        {
            "buffer" : 0,
            "byteLength" : 26856,
            "byteOffset" : 254800
        },
        {
            "buffer" : 0,
            "byteLength" : 132,
            "byteOffset" : 281656
        },
        {
            "buffer" : 0,
            "byteLength" : 4920,
            "byteOffset" : 281788
        },
        {
            "buffer" : 0,
            "byteLength" : 4920,
            "byteOffset" : 286708
        },
        {
            "buffer" : 0,
            "byteLength" : 3280,
            "byteOffset" : 291628
        },
        {
            "buffer" : 0,
            "byteLength" : 3280,
            "byteOffset" : 294908
        },
        {
            "buffer" : 0,
            "byteLength" : 876,
            "byteOffset" : 298188
        },
        {
            "buffer" : 0,
            "byteLength" : 376929,
            "byteOffset" : 299064
        },
        {
            "buffer" : 0,
            "byteLength" : 48,
            "byteOffset" : 675996
        },
        {
            "buffer" : 0,
            "byteLength" : 48,
            "byteOffset" : 676044
        },
        {
            "buffer" : 0,
            "byteLength" : 32,
            "byteOffset" : 676092
        },
        {
            "buffer" : 0,
            "byteLength" : 32,
            "byteOffset" : 676124
        },
        {
            "buffer" : 0,
            "byteLength" : 12,
            "byteOffset" : 676156
        },
        {
            "buffer" : 0,
            "byteLength" : 106691,
            "byteOffset" : 676168
        }
    ],
    "samplers" : [
        {
            "magFilter" : 9729,
            "minFilter" : 9987
        }
    ],
    "buffers" : [
        {
            "byteLength" : 782860,
            "uri" : "data:application/octet-stream;base64,"
        }
    ]
}
