{
    "asset" : {
        "generator" : "Khronos glTF Blender I/O v1.5.17",
        "version" : "2.0"
    },
    "scene" : 0,
    "scenes" : [
        {
            "name" : "Scene",
            "nodes" : [
                0,
                1,
                6
            ]
        }
    ],
    "nodes" : [
        {
            "name" : "Light",
            "rotation" : [
                0.16907575726509094,
                0.7558803558349609,
                -0.27217137813568115,
                0.570947527885437
            ],
            "translation" : [
                4.076245307922363,
                5.903861999511719,
                -1.0054539442062378
            ]
        },
        {
            "name" : "Camera",
            "rotation" : [
                0.483536034822464,
                0.33687159419059753,
                -0.20870360732078552,
                0.7804827094078064
            ],
            "translation" : [
                7.358891487121582,
                4.958309173583984,
                6.925790786743164
            ]
        },
        {
            "mesh" : 0,
            "name" : "Lo-Body_01",
            "rotation" : [
                -0.7071068286895752,
                0,
                0,
                0.7071067094802856
            ],
            "scale" : [
                10000,
                10000,
                10000
            ]
        },
        {
            "mesh" : 1,
            "name" : "Lo-Bodyboli_01",
            "rotation" : [
                -0.7071068286895752,
                0,
                0,
                0.7071067094802856
            ],
            "scale" : [
                10000,
                10000,
                10000
            ]
        },
        {
            "mesh" : 2,
            "name" : "Lo-Bodychesheng_01",
            "rotation" : [
                -0.7071068286895752,
                0,
                0,
                0.7071067094802856
            ],
            "scale" : [
                10000,
                10000,
                10000
            ]
        },
        {
            "children" : [
                2,
                3,
                4
            ],
            "name" : "Body"
        },
        {
            "children" : [
                5
            ],
            "name" : "18000\u51fa\u79df\u8f66A",
            "rotation" : [
                0.7071068286895752,
                0,
                0,
                0.7071067094802856
            ],
            "scale" : [
                0.009999999776482582,
                0.009999999776482582,
                0.009999999776482582
            ]
        }
    ],
    "materials" : [
        {
            "doubleSided" : true,
            "name" : "Std_gusheng_cj_taxi_07112226b01.tga.002",
            "pbrMetallicRoughness" : {
                "baseColorTexture" : {
                    "index" : 0
                },
                "roughnessFactor" : 0.5527864098548889
            }
        },
        {
            "doubleSided" : true,
            "name" : "Std_gusheng_cj_taxi_07112226boli.tga.002",
            "pbrMetallicRoughness" : {
                "baseColorTexture" : {
                    "index" : 1
                },
                "roughnessFactor" : 0.5527864098548889
            }
        },
        {
            "doubleSided" : true,
            "name" : "Std_gusheng_cj_taxi_07112226.tga.002",
            "pbrMetallicRoughness" : {
                "baseColorTexture" : {
                    "index" : 2
                },
                "roughnessFactor" : 0.5527864098548889
            }
        }
    ],
    "meshes" : [
        {
            "name" : "Lo-Body_01.002",
            "primitives" : [
                {
                    "attributes" : {
                        "POSITION" : 0,
                        "NORMAL" : 1,
                        "TEXCOORD_0" : 2
                    },
                    "indices" : 3,
                    "material" : 0
                }
            ]
        },
        {
            "name" : "Lo-Bodyboli_01.003",
            "primitives" : [
                {
                    "attributes" : {
                        "POSITION" : 4,
                        "NORMAL" : 5,
                        "TEXCOORD_0" : 6
                    },
                    "indices" : 7,
                    "material" : 1
                }
            ]
        },
        {
            "name" : "Lo-Bodychesheng_01.002",
            "primitives" : [
                {
                    "attributes" : {
                        "POSITION" : 8,
                        "NORMAL" : 9,
                        "TEXCOORD_0" : 10
                    },
                    "indices" : 11,
                    "material" : 2
                }
            ]
        }
    ],
    "textures" : [
        {
            "sampler" : 0,
            "source" : 0
        },
        {
            "sampler" : 0,
            "source" : 0
        },
        {
            "sampler" : 0,
            "source" : 0
        }
    ],
    "images" : [
        {
            "bufferView" : 4,
            "mimeType" : "image/png",
            "name" : "gusheng_cj_taxi_07112226_tga"
        }
    ],
    "accessors" : [
        {
            "bufferView" : 0,
            "componentType" : 5126,
            "count" : 1734,
            "max" : [
                0.8822312951087952,
                1.5566706657409668,
                2.2207486629486084
            ],
            "min" : [
                -0.8822306394577026,
                0.003894230118021369,
                -2.135937213897705
            ],
            "type" : "VEC3"
        },
        {
            "bufferView" : 1,
            "componentType" : 5126,
            "count" : 1734,
            "type" : "VEC3"
        },
        {
            "bufferView" : 2,
            "componentType" : 5126,
            "count" : 1734,
            "type" : "VEC2"
        },
        {
            "bufferView" : 3,
            "componentType" : 5123,
            "count" : 2046,
            "type" : "SCALAR"
        },
        {
            "bufferView" : 5,
            "componentType" : 5126,
            "count" : 97,
            "max" : [
                0.9159930348396301,
                1.2672311067581177,
                0.9697243571281433
            ],
            "min" : [
                -0.914108395576477,
                0.813830554485321,
                -1.5417945384979248
            ],
            "type" : "VEC3"
        },
        {
            "bufferView" : 6,
            "componentType" : 5126,
            "count" : 97,
            "type" : "VEC3"
        },
        {
            "bufferView" : 7,
            "componentType" : 5126,
            "count" : 97,
            "type" : "VEC2"
        },
        {
            "bufferView" : 8,
            "componentType" : 5123,
            "count" : 243,
            "type" : "SCALAR"
        },
        {
            "bufferView" : 9,
            "componentType" : 5126,
            "count" : 1471,
            "max" : [
                1.0488972663879395,
                1.305208444595337,
                2.2083725929260254
            ],
            "min" : [
                -1.0488972663879395,
                0.2242002785205841,
                -2.2207486629486084
            ],
            "type" : "VEC3"
        },
        {
            "bufferView" : 10,
            "componentType" : 5126,
            "count" : 1471,
            "type" : "VEC3"
        },
        {
            "bufferView" : 11,
            "componentType" : 5126,
            "count" : 1471,
            "type" : "VEC2"
        },
        {
            "bufferView" : 12,
            "componentType" : 5123,
            "count" : 3351,
            "type" : "SCALAR"
        }
    ],
    "bufferViews" : [
        {
            "buffer" : 0,
            "byteLength" : 20808,
            "byteOffset" : 0
        },
        {
            "buffer" : 0,
            "byteLength" : 20808,
            "byteOffset" : 20808
        },
        {
            "buffer" : 0,
            "byteLength" : 13872,
            "byteOffset" : 41616
        },
        {
            "buffer" : 0,
            "byteLength" : 4092,
            "byteOffset" : 55488
        },
        {
            "buffer" : 0,
            "byteLength" : 76436,
            "byteOffset" : 59580
        },
        {
            "buffer" : 0,
            "byteLength" : 1164,
            "byteOffset" : 136016
        },
        {
            "buffer" : 0,
            "byteLength" : 1164,
            "byteOffset" : 137180
        },
        {
            "buffer" : 0,
            "byteLength" : 776,
            "byteOffset" : 138344
        },
        {
            "buffer" : 0,
            "byteLength" : 486,
            "byteOffset" : 139120
        },
        {
            "buffer" : 0,
            "byteLength" : 17652,
            "byteOffset" : 139608
        },
        {
            "buffer" : 0,
            "byteLength" : 17652,
            "byteOffset" : 157260
        },
        {
            "buffer" : 0,
            "byteLength" : 11768,
            "byteOffset" : 174912
        },
        {
            "buffer" : 0,
            "byteLength" : 6702,
            "byteOffset" : 186680
        }
    ],
    "samplers" : [
        {
            "magFilter" : 9729,
            "minFilter" : 9987
        }
    ],
    "buffers" : [
        {
            "byteLength" : 193384,
            "uri" : "data:application/octet-stream;base64,"
        }
    ]
}
